/* XPM */
static char * favicon[] = {
"24 24 128 2",
"   c None",
".  c #6EB7DF",
"X  c #66B3DD",
"o  c #5DADDA",
"O  c #71B8E0",
"+  c #5BADDB",
"@  c #81C1E4",
"#  c #88C5E6",
"$  c #0B80C6",
"%  c #0C81C7",
"&  c #78BDE2",
"*  c #65B3DD",
"=  c #1083C8",
"-  c #52A8D9",
";  c #6AB5DF",
":  c #6DB7E0",
">  c #5CAEDC",
",  c #3094D0",
"<  c #89C6E6",
"1  c #3699D2",
"2  c #43A0D5",
"3  c #429FD5",
"4  c #3D9CD4",
"5  c #218DCC",
"6  c #238ECD",
"7  c #228DCD",
"8  c #0A80C6",
"9  c #60B0DC",
"0  c #0B81C6",
"q  c #0F83C8",
"w  c #0D82C7",
"e  c #241B19",
"r  c #231A19",
"t  c #201512",
"y  c #211614",
"u  c #2A211F",
"i  c #372E2C",
"p  c #443C3A",
"a  c #4F4947",
"s  c #585351",
"d  c #595453",
"f  c #58595B",
"g  c #63B1DD",
"h  c #87C5E6",
"j  c #241B1A",
"k  c #3388BA",
"l  c #62B7E7",
"z  c #61B9EB",
"x  c #61BAEB",
"c  c #62B6E6",
"v  c #61B6E5",
"b  c #60B5E5",
"n  c #60B4E4",
"m  c #53B1E6",
"M  c #5DAEDB",
"N  c #83C3E4",
"B  c #241C1B",
"V  c #2C80B1",
"C  c #585758",
"Z  c #53A9D9",
"A  c #48A5DA",
"S  c #7ABDE2",
"D  c #55AADA",
"F  c #346B8D",
"G  c #3599D1",
"H  c #241D1C",
"J  c #585859",
"K  c #5A5858",
"L  c #1988CA",
"P  c #1285C8",
"I  c #0F83C7",
"U  c #0F85CB",
"Y  c #4F4F51",
"T  c #6BB6DE",
"R  c #1586C9",
"E  c #595A5C",
"W  c #266F9C",
"Q  c #1C8ACB",
"!  c #231F20",
"~  c #565759",
"^  c #0E84CA",
"/  c #0882CA",
"(  c #0882C9",
")  c #444244",
"_  c #50A7D8",
"`  c #3598D1",
"'  c #1184C8",
"]  c #414042",
"[  c #0D75B3",
"{  c #545456",
"}  c #454446",
"|  c #353132",
" . c #0982CA",
".. c #383637",
"X. c #1D8BCB",
"o. c #1385C9",
"O. c #0980C6",
"+. c #0B7FC4",
"@. c #241E1D",
"#. c #0783CD",
"$. c #505052",
"%. c #403E40",
"&. c #332B2A",
"*. c #242021",
"=. c #241A18",
"-. c #0B7DC1",
";. c #2C292A",
":. c #0980C7",
">. c #4E5F6A",
",. c #57585A",
"<. c #4C4B4D",
"1. c #3E3C3D",
"2. c #0F6CA3",
"3. c #0E70AA",
"4. c #0E6FA9",
"5. c #0F6FA9",
"6. c #555658",
"7. c #474547",
"8. c #58595C",
"9. c #525253",
"0. c #464547",
"q. c #0087D7",
"w. c #504B49",
"e. c #3D3B3D",
"r. c #383638",
"t. c #2B2728",
"y. c #383536",
"u. c #0A80C7",
"                                                ",
"          . X                                   ",
"      o O                                       ",
"    + @                                         ",
"    #       $ %                                 ",
"  & *   = - ; : > ,                             ",
"  <     1 2 3 3 3 4                             ",
"  <     5 6 6 6 6 7 8                           ",
"9 <     0 q q q q w 8 e r t t y u i p a s d f   ",
"g h     8 8 8 8 8 8   j k l z x l c v b n m f   ",
"M N       8 8 8 8     B V     C   Z Z Z Z A f   ",
"  S     D     F   G   H   J K   5 L P I I U Y   ",
"  T 2     R   E W Q   !   ~   ^ /   8 8 8 ( )   ",
"  _ `     '   ] [ 6     { } |   !   8 8 8  ...  ",
"  X.o.O.    +.@.#.  f $.%.&.*.! =.-.8 8 8  .;.  ",
"    8 :.        >.,.<.1.        2.3.4.4.4.5.*.  ",
"    8   f f f f 6.7.    ! ! ! ! ! ! ! ! ! ! !   ",
"      K     8.9.0.              ! !             ",
"        :.q.w.e.                                ",
"            r.t.                                ",
"          y.  u.8                         8     ",
"              8 8 8 8                 8 8       ",
"                    8 8 8 8 8 8 8 8 8           ",
"                                                "};
